<?xml version="1.0" standalone="no"?>
<!DOCTYPE svg PUBLIC "-//W3C//DTD SVG 20010904//EN"
 "http://www.w3.org/TR/2001/REC-SVG-20010904/DTD/svg10.dtd">
<svg version="1.0" xmlns="http://www.w3.org/2000/svg"
 width="536.000000pt" height="536.000000pt" viewBox="0 0 536.000000 536.000000"
 preserveAspectRatio="xMidYMid meet">
<metadata>
Created by potrace 1.14, written by Peter Selinger 2001-2017
</metadata>
<g transform="translate(0.000000,536.000000) scale(0.100000,-0.100000)"
fill="#000000" stroke="none">
<path d="M2848 4685 c-2 -3 -33 -7 -67 -10 -34 -3 -71 -9 -81 -15 -11 -6 -20
-8 -20 -4 0 3 -6 2 -12 -4 -14 -11 -128 -47 -140 -44 -5 1 -8 -2 -8 -6 0 -4
-9 -8 -21 -9 -11 -1 -27 -8 -36 -15 -21 -17 -53 -35 -86 -49 -15 -6 -32 -20
-38 -30 -5 -10 -18 -19 -27 -19 -10 0 -39 -20 -66 -45 -27 -25 -52 -45 -55
-45 -8 -1 -63 -78 -84 -120 -9 -19 -22 -39 -27 -44 -6 -6 -10 -15 -10 -22 0
-18 32 -27 43 -12 6 9 7 6 4 -10 -5 -19 -2 -22 15 -16 17 5 20 3 14 -11 -4
-12 -2 -16 6 -12 7 3 21 8 31 12 11 5 17 3 17 -5 0 -16 -30 -39 -51 -40 -18 0
-36 -30 -19 -30 6 0 10 4 10 9 0 6 9 9 19 8 34 -2 6 -37 -30 -37 -17 0 -28 4
-25 9 4 5 -3 7 -14 4 -11 -3 -20 -9 -20 -14 0 -5 -9 -9 -21 -9 -11 0 -17 -4
-14 -10 8 -13 -1 -13 -27 1 -25 13 -53 -6 -29 -20 10 -7 9 -11 -6 -22 -24 -17
-39 -63 -17 -55 11 4 11 0 -2 -19 -9 -14 -18 -44 -20 -68 -6 -71 -16 -121 -28
-136 -8 -11 -8 -13 2 -7 7 4 12 1 12 -9 0 -10 -5 -13 -12 -9 -7 4 -8 3 -4 -5
10 -15 -7 -90 -45 -202 -16 -47 -28 -101 -28 -120 0 -18 -2 -41 -4 -49 -18
-70 -30 -108 -39 -127 -20 -39 -13 -104 15 -158 33 -62 36 -100 7 -92 -25 7
-25 -8 -1 -40 19 -23 19 -59 1 -48 -11 7 -6 -23 6 -35 5 -5 34 -10 64 -10 85
0 108 4 103 16 -2 7 0 15 6 19 6 3 11 13 11 21 0 8 -4 12 -10 9 -6 -4 -7 6 -3
27 3 18 12 37 20 41 7 5 11 12 9 16 -3 5 6 6 21 3 23 -4 25 -2 20 18 -4 16 0
28 11 37 12 11 14 16 5 19 -7 3 -13 17 -13 30 0 14 -7 27 -15 30 -8 4 -12 11
-9 16 4 6 1 14 -6 18 -22 13 -48 -26 -55 -82 -8 -66 -18 -77 -40 -44 -19 28
-15 98 5 104 5 2 8 7 6 11 -4 6 13 108 28 171 13 54 51 136 73 157 13 12 23
29 23 38 0 8 6 15 14 15 7 0 21 15 30 34 9 19 21 36 27 38 5 2 11 16 13 31 1
15 8 33 14 39 7 7 12 18 12 25 0 7 4 13 9 13 10 0 23 -36 24 -66 0 -16 5 -20
22 -16 24 4 40 45 36 89 -1 12 5 39 14 59 8 20 13 40 10 44 -3 5 -1 11 4 14 4
3 7 18 5 34 -2 21 1 29 12 29 10 0 14 -7 10 -20 -2 -10 1 -25 7 -32 9 -10 15
-6 29 16 10 16 25 29 34 29 12 0 15 6 11 23 -3 12 1 31 9 41 12 17 16 18 27 6
9 -10 9 -12 0 -6 -8 4 -13 1 -13 -8 0 -25 16 -27 41 -6 20 16 21 19 7 20 -10
0 -18 5 -18 10 0 6 8 10 18 10 26 1 60 29 45 38 -15 9 -7 21 35 50 18 13 31
17 30 10 -2 -9 16 -13 61 -14 49 -1 67 -6 77 -19 14 -19 14 -19 27 25 3 11 8
7 17 -12 14 -30 62 -52 78 -36 7 7 12 3 17 -11 3 -12 11 -19 16 -15 6 3 16 0
24 -6 12 -10 15 -10 15 1 0 11 2 11 10 -1 8 -12 10 -12 10 -1 0 8 7 11 20 8
24 -6 37 10 21 26 -14 14 -14 57 -1 57 6 0 13 -7 16 -15 4 -8 15 -15 25 -15
10 0 19 -4 19 -9 0 -5 7 -12 16 -15 12 -5 14 -1 9 17 -6 19 -3 18 18 -8 25
-30 26 -30 22 -5 -2 14 -7 35 -10 48 -9 26 13 31 22 5 17 -50 57 -126 60 -116
4 10 12 9 39 -2 29 -12 36 -12 40 -1 6 16 44 9 44 -8 0 -7 4 -6 9 2 4 8 11 13
15 13 3 -1 7 -1 9 0 3 1 79 8 99 9 10 1 21 6 24 12 5 7 2 9 -8 6 -8 -4 -20 -3
-27 2 -8 4 16 11 55 15 38 4 71 11 74 15 6 10 112 -8 125 -22 7 -7 5 -9 -5 -6
-8 3 -29 -5 -46 -18 -17 -13 -34 -21 -37 -17 -3 3 -20 1 -36 -5 -17 -6 -33 -7
-36 -2 -6 9 18 21 55 27 36 6 38 13 3 13 -38 0 -96 -23 -86 -34 5 -5 -2 -5
-14 -2 -15 5 -23 3 -23 -4 0 -6 5 -8 11 -5 6 4 9 0 7 -10 -2 -10 3 -20 11 -23
8 -3 11 0 7 7 -4 6 -2 11 3 11 6 0 11 -5 11 -11 0 -6 9 -9 20 -6 16 4 20 0 20
-18 0 -25 12 -39 24 -28 4 4 17 8 29 10 12 2 32 5 44 8 15 3 23 0 27 -12 2
-10 2 2 0 27 -3 33 -2 41 6 30 6 -9 10 -10 10 -3 0 6 -4 15 -10 18 -5 3 -10
13 -10 21 0 13 5 12 30 -3 17 -9 30 -20 30 -24 0 -4 14 -10 30 -14 25 -5 36
-18 60 -66 17 -32 30 -65 30 -73 0 -7 7 -17 16 -20 13 -5 15 -2 10 16 -11 39
-28 122 -31 150 -2 15 -12 39 -24 54 -12 15 -21 32 -21 39 0 7 -15 26 -32 41
-18 15 -32 31 -31 35 5 15 -81 79 -136 101 -68 27 -246 36 -255 12 -4 -10 2
-12 24 -7 40 8 39 -12 -2 -26 -17 -6 -49 -29 -70 -51 -50 -51 -57 -51 -21 -1
15 22 38 43 51 46 20 5 21 7 8 20 -19 19 -25 19 -72 -4 -39 -19 -65 -19 -31 1
18 9 17 11 -5 35 l-23 26 32 -17 c36 -18 67 -21 58 -6 -3 6 0 10 7 10 10 0 9
3 -2 11 -11 8 9 9 73 5 48 -3 87 -3 87 -1 0 14 -99 65 -127 65 -19 0 -32 4
-29 9 5 8 -10 13 -116 40 -23 6 -40 6 -44 0 -3 -5 -12 -5 -22 0 -9 5 -33 7
-52 5 -35 -3 -35 -3 -5 5 17 5 55 9 85 10 30 1 61 5 69 10 8 5 -14 8 -58 7
-39 -1 -71 1 -71 5 0 4 33 11 73 15 48 6 61 10 40 12 -21 2 -33 9 -33 18 0 8
-10 19 -22 24 -19 7 -13 9 26 9 56 1 58 9 4 13 -20 1 -34 6 -32 10 8 13 70 9
111 -6 62 -23 113 -29 131 -14 12 10 14 10 8 0 -5 -8 2 -14 24 -18 17 -4 33
-11 36 -15 7 -12 -53 -11 -77 1 -25 14 -199 22 -199 10 0 -6 9 -10 20 -10 41
0 134 -31 152 -50 13 -14 27 -19 41 -15 16 5 18 4 8 -3 -10 -8 -6 -12 18 -17
18 -4 48 -20 67 -37 19 -17 34 -25 34 -20 0 6 -4 14 -10 17 -15 9 -12 25 4 25
8 0 37 -25 65 -56 29 -31 54 -55 56 -52 2 2 -8 17 -22 32 -17 19 -27 41 -28
64 -1 28 -7 40 -28 53 -20 11 -24 18 -14 22 7 3 24 -4 38 -14 27 -21 39 -24
39 -9 0 25 -171 127 -192 114 -5 -3 -39 13 -74 37 -35 24 -59 46 -52 48 6 2
17 -4 24 -14 7 -9 17 -14 23 -11 11 7 51 -10 64 -28 6 -7 7 -6 5 3 -2 8 -19
22 -37 32 -18 9 -38 24 -44 33 -7 9 -28 18 -47 20 -68 7 -66 7 -46 15 15 6 4
12 -48 30 -37 13 -70 20 -73 17 -4 -3 1 -6 11 -6 9 0 15 -4 12 -9 -4 -5 -25
-3 -50 4 -34 11 -60 11 -115 3 -60 -9 -72 -8 -86 6 -17 16 -28 20 -37 11z
m517 -195 c3 -5 1 -10 -4 -10 -6 0 -11 5 -11 10 0 6 2 10 4 10 3 0 8 -4 11
-10z m-352 -116 c-7 -3 -10 -11 -7 -17 3 -8 -6 -13 -23 -15 -21 -1 -24 0 -13
8 12 8 12 10 -5 10 -11 0 -37 -5 -58 -11 -22 -6 -41 -8 -43 -6 -7 6 105 35
136 35 14 0 20 -2 13 -4z m45 -90 c53 -15 90 -34 66 -34 -14 0 -146 39 -152
45 -10 10 30 5 86 -11z m127 -104 c3 -5 1 -10 -4 -10 -6 0 -11 5 -11 10 0 6 2
10 4 10 3 0 8 -4 11 -10z m464 -55 c28 -16 49 -30 47 -32 -2 -2 -23 1 -47 7
-148 38 -237 40 -302 6 -26 -13 -43 -18 -37 -11 6 7 26 21 45 30 19 9 35 21
35 27 0 7 32 9 104 6 89 -5 112 -10 155 -33z m-219 -45 c0 -5 -7 -7 -15 -4 -8
4 -15 8 -15 10 0 2 7 4 15 4 8 0 15 -4 15 -10z m253 -49 c15 -15 -44 -21 -108
-12 -33 5 -78 7 -100 5 -29 -3 -36 -1 -25 6 8 6 39 9 67 8 29 -1 56 2 60 6 10
10 94 -1 106 -13z m-1213 -60 c0 -12 -20 -25 -27 -18 -7 7 6 27 18 27 5 0 9
-4 9 -9z m-244 -239 c-11 -10 -13 3 -7 43 l6 40 3 -39 c2 -21 1 -41 -2 -44z"/>
<path d="M3244 4361 c5 -7 14 -10 21 -7 7 2 18 -1 24 -7 6 -6 14 -8 18 -4 10
10 1 16 -37 23 -25 5 -31 4 -26 -5z"/>
<path d="M3358 4310 c36 -22 42 -24 42 -12 0 10 -44 32 -63 32 -7 0 3 -9 21
-20z"/>
<path d="M3660 4249 c0 -9 7 -22 15 -29 19 -16 19 0 0 26 -12 16 -14 16 -15 3z"/>
<path d="M3527 4229 c7 -7 15 -10 18 -7 3 3 -2 9 -12 12 -14 6 -15 5 -6 -5z"/>
<path d="M3790 4103 c0 -18 22 -63 31 -63 10 0 1 27 -18 55 -7 11 -13 14 -13
8z"/>
<path d="M3845 4030 c-3 -5 -1 -10 4 -10 6 0 11 5 11 10 0 6 -2 10 -4 10 -3 0
-8 -4 -11 -10z"/>
<path d="M3395 3910 c3 -5 11 -10 16 -10 6 0 7 5 4 10 -3 6 -11 10 -16 10 -6
0 -7 -4 -4 -10z"/>
<path d="M3710 3876 c0 -2 8 -10 18 -17 15 -13 16 -12 3 4 -13 16 -21 21 -21
13z"/>
<path d="M3570 3842 c0 -2 8 -14 18 -26 19 -25 36 -17 38 17 1 13 -5 17 -27
15 -16 -1 -29 -4 -29 -6z"/>
<path d="M3750 3823 c0 -12 9 -28 20 -36 23 -16 43 -64 33 -80 -5 -7 -19 -13
-33 -15 -79 -10 -102 -16 -107 -28 -8 -22 38 -111 65 -123 30 -14 32 -14 33 7
0 13 2 12 9 -5 6 -15 15 -20 29 -16 12 3 21 1 22 -3 0 -5 3 -20 7 -34 3 -14 6
-46 6 -71 1 -44 2 -45 17 -27 9 10 22 39 28 64 10 39 14 44 26 34 17 -14 18
-12 15 65 -2 48 -26 113 -37 101 -10 -10 -41 34 -47 67 -3 18 -24 53 -46 77
-34 38 -40 41 -40 23z"/>
<path d="M3626 3774 c-15 -59 14 -94 70 -84 21 4 29 8 17 9 -34 2 -57 13 -43
21 8 5 6 17 -7 43 -21 43 -29 46 -37 11z"/>
<path d="M2470 3430 c0 -7 -7 -10 -15 -6 -8 3 -26 1 -39 -5 -17 -8 -29 -8 -44
0 -27 15 -128 3 -148 -17 -8 -8 -17 -12 -20 -9 -11 10 -54 -41 -48 -57 4 -10
1 -16 -8 -16 -8 0 -24 -17 -36 -39 -26 -46 -29 -91 -6 -91 11 0 14 -6 9 -20
-4 -12 -2 -20 5 -20 6 0 15 -11 20 -25 6 -15 17 -25 30 -25 11 0 32 -7 45 -16
13 -9 29 -13 34 -10 5 4 16 -3 24 -14 8 -12 31 -23 53 -27 l39 -6 -20 24 c-11
13 -24 27 -30 31 -6 5 -5 15 3 28 7 11 10 25 7 30 -9 15 33 12 64 -5 16 -8 47
-17 68 -21 33 -5 44 -2 73 23 19 15 31 22 26 16 -4 -7 -3 -13 2 -13 5 0 9 -10
8 -22 -1 -15 8 -27 27 -36 20 -10 27 -20 27 -42 0 -39 28 -46 82 -20 60 29 76
43 82 71 17 87 18 82 -24 129 -22 24 -40 50 -40 57 0 7 -3 12 -7 11 -16 -3
-43 15 -43 29 0 8 -4 12 -9 9 -5 -4 -28 12 -51 34 -38 36 -60 46 -99 41 -8 -2
-10 2 -5 10 5 9 2 10 -10 6 -9 -4 -14 -3 -11 2 3 5 1 12 -5 16 -5 3 -10 1 -10
-5z m-255 -60 c-3 -5 -11 -10 -16 -10 -6 0 -7 5 -4 10 3 6 11 10 16 10 6 0 7
-4 4 -10z m231 -98 c-9 -9 -37 8 -31 18 5 8 11 7 21 -1 8 -6 12 -14 10 -17z"/>
<path d="M3798 3340 c-2 -45 -7 -64 -15 -62 -14 2 -18 -49 -15 -199 2 -66 -1
-89 -13 -99 -8 -7 -14 -27 -14 -44 1 -21 3 -25 6 -11 3 11 8 22 12 25 8 6 41
75 41 87 0 4 5 15 10 23 8 13 11 12 23 -4 20 -27 41 -11 33 25 -3 16 -1 29 4
29 6 0 10 9 10 21 0 25 -44 81 -56 71 -5 -4 -3 0 3 8 8 11 8 30 2 68 -7 35 -7
58 0 65 6 9 4 20 -9 37 l-19 25 -3 -65z"/>
<path d="M3161 3271 c-8 -5 -11 -15 -8 -23 3 -8 -1 -15 -9 -15 -7 0 -11 5 -7
10 3 5 -5 3 -18 -3 -30 -16 -39 -25 -17 -17 11 4 21 0 27 -10 7 -14 30 -17
137 -19 71 -1 114 0 96 3 -18 2 -30 8 -27 14 3 5 0 6 -8 3 -18 -6 -32 12 -17
21 6 4 8 11 4 16 -3 5 -10 7 -15 3 -5 -3 -16 -1 -23 6 -19 15 -98 23 -115 11z
m109 -45 c0 -9 -40 -13 -46 -5 -3 5 6 9 20 9 14 0 26 -2 26 -4z m-100 -16 c0
-5 -4 -10 -10 -10 -5 0 -10 5 -10 10 0 6 5 10 10 10 6 0 10 -4 10 -10z"/>
<path d="M3883 3235 c0 -22 2 -30 4 -17 2 12 2 30 0 40 -3 9 -5 -1 -4 -23z"/>
<path d="M3861 3214 c0 -11 3 -14 6 -6 3 7 2 16 -1 19 -3 4 -6 -2 -5 -13z"/>
<path d="M3165 3132 c-29 -6 -47 -23 -40 -40 3 -8 -1 -22 -9 -31 -14 -15 -12
-17 18 -13 31 4 35 1 41 -28 7 -34 35 -50 84 -50 28 0 61 26 61 48 0 19 28 14
50 -8 11 -11 20 -16 20 -11 0 27 -110 91 -157 91 -22 0 -25 2 -13 10 8 5 31 7
50 4 28 -4 31 -3 18 6 -22 13 -97 27 -123 22z m140 -82 c3 -5 1 -10 -4 -10 -6
0 -11 5 -11 10 0 6 2 10 4 10 3 0 8 -4 11 -10z"/>
<path d="M2032 2752 c-13 -29 -17 -122 -4 -122 5 0 7 -29 6 -64 -2 -64 11
-145 39 -245 9 -29 19 -110 22 -180 6 -103 4 -130 -8 -146 -12 -15 -18 -17
-29 -7 -16 13 -53 5 -106 -22 -17 -9 -50 -16 -74 -16 -24 -1 -61 -8 -83 -16
-84 -32 -202 -65 -248 -70 -27 -2 -86 -16 -130 -29 -129 -40 -181 -56 -197
-63 -8 -3 -18 -6 -22 -6 -3 -1 -10 -4 -14 -8 -4 -5 -17 -8 -29 -8 -12 0 -25
-3 -29 -7 -4 -5 -11 -8 -14 -9 -30 -4 -102 -28 -102 -35 0 -4 -10 -11 -22 -14
-13 -4 -54 -22 -93 -40 -38 -18 -92 -41 -120 -51 -83 -30 -218 -110 -262 -156
-61 -63 -103 -101 -143 -131 -19 -14 -46 -47 -59 -74 -13 -26 -28 -57 -33 -67
-8 -15 -7 -18 6 -13 19 8 108 -34 146 -68 14 -13 41 -33 61 -46 111 -73 139
-95 139 -111 0 -10 6 -18 13 -18 13 0 29 -13 94 -73 l31 -29 21 21 c12 12 18
21 14 21 -4 0 -2 5 4 11 7 7 8 24 2 47 -4 20 -5 40 -2 45 3 6 -2 16 -12 23
-16 12 -25 44 -28 104 0 8 2 37 6 63 5 40 4 48 -8 43 -8 -3 -15 -2 -15 3 0 5
11 12 25 15 14 4 23 11 20 16 -3 6 -1 10 4 10 14 0 14 -27 1 -35 -5 -3 -10
-11 -10 -16 0 -6 7 -4 15 4 20 20 35 93 23 105 -13 13 0 35 14 26 6 -4 8 -2 5
3 -4 6 2 22 13 34 l19 24 -6 -22 c-3 -14 -1 -23 6 -23 6 0 11 -5 11 -11 0 -15
26 -39 44 -39 13 0 59 -99 54 -118 -1 -4 1 -21 6 -38 4 -17 2 -52 -4 -79 -9
-39 -8 -51 3 -63 13 -12 13 -18 1 -40 -8 -15 -11 -48 -9 -84 2 -32 1 -58 -3
-58 -8 0 -14 -77 -10 -135 2 -40 -2 -55 -16 -55 -13 0 -14 -49 -1 -71 4 -5 2
-9 -3 -9 -5 0 -7 -11 -5 -24 3 -13 -2 -38 -11 -55 -9 -17 -12 -31 -7 -31 5 0
8 -10 5 -23 -4 -18 -8 -306 -5 -369 1 -16 16 -18 174 -17 127 0 165 3 145 11
-16 5 -28 14 -28 19 0 14 20 11 20 -3 1 -8 6 -6 14 4 7 10 17 14 22 10 4 -4 3
1 -5 10 -7 10 -19 14 -29 11 -15 -6 -15 -5 -3 10 12 15 12 17 -3 11 -9 -3 -16
-1 -16 5 0 7 7 14 15 17 8 4 15 11 15 16 0 6 8 17 18 24 15 12 14 14 -15 24
-20 7 -33 20 -35 33 -5 28 22 77 42 76 10 0 11 -2 3 -6 -7 -2 -13 -13 -13 -24
0 -10 -5 -19 -12 -19 -6 0 -8 -3 -5 -6 4 -4 14 -1 24 7 11 9 14 10 9 1 -4 -7
-2 -12 5 -12 7 0 4 -7 -7 -15 -19 -15 -8 -20 20 -9 19 7 21 34 4 34 -7 1 -2
10 11 21 l24 20 -21 6 c-12 3 -22 12 -22 19 0 16 -35 54 -50 54 -12 0 -29 60
-21 80 3 10 7 5 11 -14 6 -37 25 -44 26 -11 1 14 -2 22 -7 19 -12 -7 -11 3 2
27 8 16 13 18 25 8 12 -10 13 -9 8 5 -3 9 -10 16 -14 16 -13 0 -18 38 -7 49 8
8 5 15 -9 26 -12 9 -14 14 -6 15 7 0 10 5 6 12 -4 6 -6 29 -6 52 1 22 -3 43
-9 47 -17 10 -13 100 6 156 2 7 0 13 -6 13 -6 0 -9 27 -8 65 1 35 6 62 10 59
5 -3 6 2 3 11 -4 8 -1 22 5 29 9 11 9 15 -1 18 -17 6 -21 148 -5 148 9 0 9 2
1 8 -6 4 -14 28 -18 55 -6 38 -4 47 8 47 21 0 30 -18 16 -35 -10 -12 -9 -15 4
-15 10 0 15 4 12 9 -17 27 52 13 83 -17 10 -10 16 -10 27 -1 11 9 14 7 14 -14
0 -35 20 -77 37 -77 7 0 14 -8 14 -17 1 -10 2 -23 3 -29 1 -14 35 -62 63 -89
14 -13 21 -30 18 -43 -2 -12 3 -23 12 -26 12 -5 13 -9 4 -20 -9 -11 -9 -15 0
-18 12 -4 27 -118 16 -118 -3 0 -18 5 -34 10 -23 8 -25 8 -12 -2 9 -7 15 -21
13 -30 -3 -22 15 -23 30 -3 9 12 11 6 10 -27 0 -24 -3 -50 -7 -58 -3 -8 -7
-23 -9 -33 -2 -10 -6 -18 -11 -17 -4 0 -13 -5 -20 -12 -16 -14 -22 -98 -9 -98
6 0 13 -11 16 -25 4 -14 11 -23 16 -20 14 9 12 -8 -4 -30 -10 -15 -11 -23 -2
-37 6 -10 14 -18 19 -18 4 0 5 5 1 12 -4 6 -3 8 4 4 7 -4 8 -17 2 -36 -5 -17
-5 -30 0 -30 9 0 34 -65 35 -90 1 -8 6 -14 13 -13 6 2 9 -3 6 -11 -3 -8 0 -17
5 -21 6 -3 9 -11 6 -16 -4 -5 -2 -9 3 -9 9 0 22 -28 27 -60 5 -29 23 -65 43
-86 19 -20 27 -20 661 -22 447 -1 641 1 641 9 0 5 5 7 10 4 6 -3 10 0 10 7 0
10 2 10 8 1 5 -7 21 -14 38 -16 25 -3 29 0 29 19 0 18 -4 22 -17 18 -14 -4
-16 -1 -11 12 4 11 2 15 -4 11 -6 -4 -13 2 -16 12 -5 20 22 24 36 6 7 -10 27
11 27 30 0 6 -4 5 -8 -2 -5 -8 -13 -9 -22 -3 -11 7 -11 10 -2 10 14 0 7 46
-11 68 -8 10 -7 16 3 22 9 5 11 20 7 44 -3 20 -1 38 4 41 5 4 9 12 9 18 0 9
-2 9 -8 0 -5 -8 -12 -8 -26 3 -16 11 -17 14 -4 14 9 0 18 9 21 20 7 26 -3 61
-14 54 -5 -3 -9 2 -9 10 0 9 5 16 10 16 6 0 10 13 10 29 0 17 -4 33 -10 36 -5
3 -10 11 -10 17 0 6 11 1 25 -12 14 -13 25 -18 25 -12 0 7 -5 12 -11 12 -5 0
-7 5 -3 12 4 6 3 8 -3 5 -6 -4 -15 5 -21 19 -11 23 -11 24 9 13 15 -8 19 -8
15 0 -13 21 5 33 21 14 13 -17 14 -16 10 8 -2 15 1 26 7 26 33 -1 45 4 40 16
-5 14 -34 19 -34 6 0 -3 -9 -9 -19 -12 -13 -3 -21 1 -24 15 -3 11 -15 22 -26
25 -25 6 -26 10 -7 29 10 9 17 11 21 4 5 -8 11 -7 21 1 11 9 14 7 14 -10 0
-11 -3 -20 -7 -19 -5 2 -8 -1 -8 -7 0 -5 5 -8 10 -6 6 2 18 3 29 3 18 -1 18
-1 0 13 -17 13 -17 16 -4 26 11 8 12 12 3 16 -17 6 -17 27 0 20 9 -3 13 3 13
16 -1 12 5 22 12 23 6 1 16 2 21 3 4 0 7 19 6 41 -1 22 2 40 7 40 4 0 6 11 2
25 -4 15 -2 25 4 25 6 0 25 13 43 30 18 16 35 28 37 25 2 -2 17 10 33 28 21
22 25 33 16 39 -18 12 -30 10 -24 -5 2 -6 -1 -18 -8 -24 -10 -10 -15 -9 -19 4
-4 9 4 25 20 40 25 23 27 23 39 6 7 -10 16 -15 20 -12 3 4 -1 14 -10 23 -9 9
-13 20 -10 26 10 16 33 12 44 -8 10 -16 10 -16 11 1 0 10 -6 20 -14 23 -11 4
-7 16 17 52 17 26 34 49 37 52 4 3 24 43 44 90 20 47 40 92 44 100 5 8 17 42
27 75 11 33 22 62 25 65 3 3 6 20 8 39 1 19 7 40 12 46 5 7 7 15 4 18 -3 3 -2
12 2 19 9 14 10 19 12 59 1 14 8 34 16 45 14 18 15 18 14 -6 -1 -38 -46 -242
-64 -291 -10 -24 -18 -69 -19 -99 -1 -65 -48 -219 -75 -250 -10 -12 -22 -35
-25 -51 -4 -16 -11 -29 -16 -29 -6 0 -7 -5 -4 -10 3 -6 0 -13 -8 -16 -10 -4
-13 -18 -10 -51 2 -25 -1 -51 -7 -58 -6 -7 -9 -23 -6 -36 5 -33 -10 -57 -36
-61 -13 -2 -22 -7 -20 -11 2 -5 -4 -14 -12 -20 -9 -7 -19 -33 -22 -58 -5 -36
-3 -49 12 -64 19 -18 18 -18 -3 -13 -12 3 -22 3 -21 -1 2 -20 -4 -22 -17 -5
-14 19 -14 18 -15 -3 0 -13 5 -23 10 -23 15 0 12 -27 -4 -33 -8 -3 -12 -18
-11 -40 3 -29 -1 -36 -18 -42 -14 -4 -17 -8 -9 -12 6 -2 12 -16 12 -29 0 -17
4 -23 13 -19 6 4 1 -2 -12 -13 l-24 -20 21 -13 c25 -16 29 -29 7 -29 -9 0 -15
-9 -15 -25 0 -15 -6 -25 -15 -25 -14 0 -14 -8 2 -47 12 -33 11 -54 -3 -49 -21
8 -26 -10 -7 -25 11 -10 14 -10 9 -2 -5 9 -2 11 8 7 19 -7 21 -25 4 -22 -8 2
-13 -9 -13 -29 0 -17 -3 -35 -7 -39 -8 -7 -12 9 -9 35 2 7 -3 10 -9 6 -6 -4
-9 -13 -6 -21 3 -8 0 -14 -7 -14 -7 -1 1 -8 16 -16 32 -17 27 -37 -8 -28 -23
6 -23 5 -12 -20 l12 -26 627 0 c577 0 663 3 629 25 -6 3 -8 12 -5 20 4 8 -1
18 -10 21 -24 9 -21 37 4 29 12 -4 20 -2 20 5 0 6 -5 8 -10 5 -6 -3 -10 -1
-10 5 0 6 -5 8 -12 4 -9 -5 -9 -2 1 9 16 20 25 23 15 5 -5 -10 -4 -10 5 -2 10
9 10 17 2 32 -6 10 -7 22 -4 26 3 3 1 6 -5 6 -7 0 -12 8 -11 18 0 9 3 12 5 5
3 -7 12 -9 19 -6 11 4 12 10 4 24 -6 13 -6 19 1 19 5 0 10 12 10 28 0 18 -3
23 -9 14 -7 -11 -9 -11 -14 2 -4 9 -2 15 4 13 15 -3 37 34 23 40 -6 2 -9 16
-6 32 2 16 -1 31 -6 35 -7 4 -6 16 3 33 10 18 11 31 5 37 -6 6 -10 21 -10 35
0 21 2 23 11 11 8 -11 9 -7 4 18 -5 22 -3 32 5 32 10 0 9 4 0 15 -9 10 -9 19
-2 28 9 11 17 54 12 67 -8 22 -8 50 0 55 5 3 7 19 3 35 -3 17 -1 36 4 42 5 7
9 34 9 61 -1 26 2 47 6 47 4 0 6 23 6 52 -1 28 3 53 8 55 6 2 8 20 6 41 -4 34
-4 36 13 22 17 -14 17 -14 5 5 -10 17 -9 32 4 84 10 39 16 104 16 176 0 125
-7 175 -24 175 -6 0 -26 -25 -44 -55 -18 -30 -38 -60 -45 -68 -26 -28 -110
-190 -94 -180 7 3 4 -3 -5 -14 -10 -11 -18 -25 -18 -31 0 -7 -4 -12 -10 -12
-5 0 -10 -12 -10 -26 0 -14 -4 -33 -9 -42 -9 -16 -22 -98 -22 -134 0 -10 -5
-20 -10 -24 -5 -3 -8 0 -7 8 2 8 -5 12 -19 10 -19 -3 -23 2 -23 22 0 14 -5 26
-11 26 -6 0 -9 6 -6 13 3 7 -3 31 -14 53 -10 21 -16 47 -13 56 3 9 -2 32 -10
51 -8 20 -12 38 -9 41 3 3 0 12 -6 20 -54 65 -92 205 -100 369 -6 119 -8 130
-30 148 -41 34 -52 26 -45 -34 7 -61 -14 -121 -66 -187 -16 -21 -30 -42 -30
-48 0 -5 -10 -12 -21 -15 -15 -4 -20 -11 -15 -22 3 -9 1 -25 -5 -36 -5 -11
-12 -39 -15 -62 -3 -23 -9 -55 -14 -72 -10 -33 -24 -156 -22 -193 1 -13 -2
-21 -7 -18 -14 9 -20 -29 -15 -92 6 -67 5 -122 -1 -133 -3 -4 -1 -18 4 -32 6
-16 6 -28 -2 -36 -6 -6 -8 -11 -3 -11 4 0 0 -7 -8 -16 -9 -8 -13 -21 -9 -27
11 -18 12 -97 1 -97 -7 0 -8 -17 -5 -45 5 -34 3 -48 -11 -61 -11 -12 -13 -19
-5 -21 15 -5 5 -72 -13 -94 -19 -21 -18 -40 1 -33 10 4 15 0 15 -11 0 -11 -5
-15 -16 -11 -8 3 -13 2 -9 -3 3 -5 -1 -11 -7 -14 -10 -3 -11 -9 0 -26 16 -27
15 -31 -4 -31 -11 0 -15 -6 -11 -20 3 -13 -3 -24 -20 -35 -23 -16 -25 -16 -21
2 2 10 10 17 17 15 7 -1 10 2 6 8 -4 6 -15 8 -26 5 -11 -4 -19 -2 -19 4 0 10
14 15 33 12 4 -1 1 15 -7 34 -14 33 -14 36 7 51 14 9 16 15 7 13 -30 -3 -39 1
-33 16 3 9 -2 24 -11 34 -13 15 -14 18 -1 18 8 0 11 -5 8 -10 -3 -6 -2 -7 3
-4 6 3 11 22 12 42 2 25 -1 34 -8 30 -6 -4 -9 -13 -6 -21 3 -7 0 -16 -5 -20
-7 -4 -10 8 -8 34 2 22 -2 46 -8 54 -9 10 -7 19 8 37 19 23 19 23 19 2 0 -12
-4 -21 -10 -21 -18 0 -11 -16 8 -17 13 -1 17 6 17 30 0 36 -22 58 -36 36 -6
-10 -9 -8 -9 9 0 13 4 20 10 17 6 -3 10 3 10 14 0 12 -4 21 -10 21 -6 0 -6 9
0 26 13 32 13 43 0 24 -5 -8 -10 -10 -10 -4 0 6 3 14 7 18 4 4 6 42 5 84 -2
43 1 89 7 104 7 19 7 28 -2 32 -8 3 -8 5 -1 5 7 1 10 19 8 51 -2 28 -1 50 4
50 4 0 9 44 10 97 2 54 6 101 9 106 11 18 27 208 28 332 1 72 7 142 13 158 7
16 12 37 12 47 0 10 8 28 19 41 16 20 21 21 35 10 9 -8 16 -9 16 -3 0 12 -15
17 -72 28 -21 3 -38 10 -38 15 0 5 -6 9 -13 9 -19 0 -67 24 -67 33 0 5 -4 6
-9 3 -4 -3 -26 8 -47 24 -21 16 -44 30 -51 30 -7 0 -29 11 -49 25 -27 19 -41
22 -54 15 -32 -17 -29 -52 7 -86 29 -27 33 -38 33 -80 0 -27 -4 -65 -10 -84
-5 -19 -18 -92 -29 -162 -20 -131 -49 -214 -102 -293 -22 -32 -25 -43 -16 -55
10 -13 10 -13 -5 -2 -14 11 -18 10 -30 -5 -32 -44 -267 -182 -360 -212 -21 -7
-38 -17 -38 -22 0 -4 -13 -6 -30 -2 -19 3 -30 1 -30 -6 0 -6 -5 -11 -11 -11
-5 0 -7 5 -4 10 4 6 -10 10 -34 10 -36 0 -71 -19 -39 -21 7 -1 2 -5 -12 -9
-39 -12 -50 -11 -50 5 0 21 -27 19 -39 -2 -10 -17 -10 -17 -11 0 0 9 -4 17
-10 17 -5 0 -10 6 -10 14 0 9 8 12 26 8 19 -3 25 -1 20 7 -4 6 0 14 11 18 16
6 15 8 -6 13 -16 4 -25 13 -26 28 -1 12 -4 23 -6 24 -2 2 -13 8 -24 14 -11 6
-24 31 -32 60 -12 46 -11 50 9 67 12 10 28 22 37 26 12 7 13 12 3 24 -15 18
-1 48 41 89 21 21 25 32 18 45 -5 10 -18 37 -27 60 -10 23 -20 40 -23 38 -3
-1 -7 20 -9 48 -1 28 -8 55 -15 59 -8 5 -4 8 10 8 14 0 24 9 32 30 9 26 15 30
48 30 l38 1 -53 22 c-29 12 -68 36 -88 52 -19 17 -52 39 -73 50 -84 46 -181
186 -181 261 0 20 -9 81 -20 135 -11 55 -18 105 -14 111 4 7 17 -1 34 -21 l26
-33 38 16 c36 15 40 14 98 -9 34 -14 67 -25 74 -25 7 0 14 -4 16 -9 2 -4 34
-11 72 -15 38 -3 74 -9 80 -13 7 -4 6 -1 -1 8 -10 12 -10 18 0 28 6 7 8 12 2
11 -23 -5 -34 1 -29 15 4 9 -7 27 -26 45 -25 23 -30 33 -21 43 18 23 89 39
139 32 l47 -6 -29 24 c-18 16 -24 27 -17 31 17 11 -17 62 -59 89 -32 21 -88
49 -100 51 -3 1 -10 5 -17 9 -17 11 2 55 36 84 69 60 -45 22 -146 -49 -30 -21
-60 -38 -66 -38 -7 0 -17 -4 -22 -9 -12 -11 -155 -19 -155 -9 0 4 -11 10 -25
14 -14 3 -23 9 -20 14 2 4 -6 12 -20 18 -13 6 -31 23 -41 37 -9 14 -23 25 -30
25 -8 0 -18 9 -22 19 -6 18 -8 18 -20 -7z m493 -224 c-11 -56 -26 -98 -35 -98
-5 0 -16 -3 -25 -7 -14 -5 -16 -2 -10 16 4 14 2 23 -9 27 -9 3 -16 14 -16 23
0 20 59 70 83 71 16 0 18 -5 12 -32z m887 -981 c20 -10 23 -17 17 -35 -5 -12
-12 -22 -18 -22 -13 0 -21 40 -8 40 7 0 3 7 -7 15 -24 18 -17 19 16 2z m105
-79 c-3 -8 -6 -5 -6 6 -1 11 2 17 5 13 3 -3 4 -12 1 -19z m-185 -60 c-7 -7
-12 -8 -12 -2 0 14 12 26 19 19 2 -3 -1 -11 -7 -17z m129 -83 c-25 -49 -27
-40 -4 17 9 23 18 37 20 32 2 -5 -6 -28 -16 -49z m-66 25 c3 -5 -1 -10 -10
-10 -9 0 -13 5 -10 10 3 6 8 10 10 10 2 0 7 -4 10 -10z m18 -33 c-3 -5 -11 -6
-19 -3 -8 3 -14 1 -14 -5 0 -6 -5 -7 -10 -4 -17 10 -1 25 25 23 13 -1 21 -6
18 -11z m-3 -27 c0 -5 -2 -10 -4 -10 -3 0 -8 5 -11 10 -3 6 -1 10 4 10 6 0 11
-4 11 -10z m-225 -69 c-3 -6 -11 -11 -16 -11 -5 0 -4 6 3 14 14 16 24 13 13
-3z m185 -5 c0 -3 -4 -8 -10 -11 -5 -3 -10 -1 -10 4 0 6 5 11 10 11 6 0 10 -2
10 -4z m19 -26 c-13 -16 -25 -28 -27 -25 -5 5 37 55 45 55 2 0 -6 -13 -18 -30z
m-1045 -16 c9 -3 16 -10 16 -16 0 -13 62 -68 77 -68 7 0 13 -6 13 -14 0 -8 10
-16 23 -18 12 -2 23 -9 23 -15 3 -25 4 -27 15 -16 12 12 39 7 39 -8 0 -9 -57
-7 -165 6 -50 6 -74 15 -40 15 12 0 15 3 8 13 -6 6 -13 31 -17 54 -3 23 -9 48
-12 57 -7 18 -4 19 20 10z m-159 -75 c25 -11 45 -23 42 -25 -5 -5 -97 35 -97
42 0 7 6 5 55 -17z m830 11 c-3 -5 -14 -10 -23 -10 -15 0 -15 2 -2 10 20 13
33 13 25 0z m-734 -55 c19 -8 27 -14 19 -14 -14 0 -72 28 -59 29 4 0 22 -7 40
-15z m969 -70 c0 -8 -7 -15 -16 -15 -14 0 -14 3 -4 15 7 8 14 15 16 15 2 0 4
-7 4 -15z m-42 -27 c-2 -6 -10 -14 -16 -16 -7 -2 -10 2 -6 12 7 18 28 22 22 4z
m1042 2 c0 -5 -2 -10 -4 -10 -3 0 -8 5 -11 10 -3 6 -1 10 4 10 6 0 11 -4 11
-10z m-1080 -30 c0 -5 -7 -10 -16 -10 -8 0 -12 5 -9 10 3 6 10 10 16 10 5 0 9
-4 9 -10z m-40 -20 c0 -5 -7 -10 -16 -10 -8 0 -12 5 -9 10 3 6 10 10 16 10 5
0 9 -4 9 -10z m-40 -24 c0 -11 -19 -15 -25 -6 -3 5 1 10 9 10 9 0 16 -2 16 -4z
m-190 -70 c0 -3 -4 -8 -10 -11 -5 -3 -10 -1 -10 4 0 6 5 11 10 11 6 0 10 -2
10 -4z m465 -35 c3 -5 0 -13 -6 -17 -7 -4 -9 -3 -5 4 3 5 0 13 -6 15 -9 4 -10
6 -1 6 6 1 14 -3 18 -8z m-818 -7 c-3 -3 -12 -4 -19 -1 -8 3 -5 6 6 6 11 1 17
-2 13 -5z m798 -24 c3 -5 1 -10 -4 -10 -6 0 -11 5 -11 10 0 6 2 10 4 10 3 0 8
-4 11 -10z m-315 -214 c0 -8 -5 -18 -12 -22 -7 -4 -8 -3 -4 4 4 7 2 12 -3 12
-6 0 -11 5 -11 10 0 6 7 10 15 10 8 0 15 -6 15 -14z m-1485 -106 c3 -5 1 -10
-4 -10 -6 0 -11 5 -11 10 0 6 2 10 4 10 3 0 8 -4 11 -10z m1370 -20 c3 -5 -1
-10 -10 -10 -9 0 -13 5 -10 10 3 6 8 10 10 10 2 0 7 -4 10 -10z m40 -9 c3 -5
1 -12 -5 -16 -5 -3 -10 1 -10 9 0 18 6 21 15 7z m63 -26 c-3 -3 -9 2 -12 12
-6 14 -5 15 5 6 7 -7 10 -15 7 -18z m239 -91 c-3 -3 -12 -4 -19 -1 -8 3 -5 6
6 6 11 1 17 -2 13 -5z m393 -93 c0 -6 -4 -12 -8 -15 -5 -3 -9 1 -9 9 0 8 4 15
9 15 4 0 8 -4 8 -9z m-2430 -115 c0 -3 -4 -8 -10 -11 -5 -3 -10 -1 -10 4 0 6
5 11 10 11 6 0 10 -2 10 -4z"/>
<path d="M2460 2175 c0 -8 5 -15 10 -15 6 0 10 7 10 15 0 8 -4 15 -10 15 -5 0
-10 -7 -10 -15z"/>
<path d="M2490 2157 c0 -19 40 -41 53 -28 8 8 5 11 -11 11 -15 0 -20 5 -16 15
4 9 0 15 -10 15 -9 0 -16 -6 -16 -13z"/>
<path d="M4262 1551 c-7 -4 -12 -18 -11 -32 0 -13 -3 -43 -7 -66 -7 -47 -3
-52 25 -25 16 14 41 78 41 104 0 13 -36 27 -48 19z"/>
<path d="M4654 1189 c-3 -6 -7 -31 -8 -56 -1 -24 -6 -47 -12 -51 -6 -4 -11
-18 -11 -32 -1 -60 -1 -62 -25 -49 l-23 12 20 -22 c15 -17 17 -26 8 -39 -6 -9
-17 -16 -24 -14 -8 2 -6 -5 6 -18 15 -16 15 -20 3 -15 -9 4 -19 2 -22 -3 -18
-29 -35 -505 -18 -516 7 -4 5 -19 -5 -46 -13 -33 -14 -47 -4 -80 9 -30 9 -50
1 -81 -9 -33 -9 -44 2 -50 10 -7 9 -9 -4 -9 -15 0 -18 -9 -18 -55 l0 -55 328
0 c242 0 331 3 340 12 7 7 12 8 12 3 0 -4 9 2 20 15 11 13 20 20 20 15 0 -4 6
-2 13 4 8 6 17 8 20 4 4 -3 7 -1 7 6 0 7 4 10 8 7 5 -3 10 23 11 58 2 72 -3
77 -76 80 -25 2 -51 10 -63 21 -16 14 -21 16 -18 5 4 -18 30 -40 40 -34 4 3 5
-1 2 -9 -3 -8 -15 -14 -27 -14 -38 2 -89 -12 -82 -22 9 -16 -13 -23 -36 -10
-19 10 -21 9 -16 -5 8 -20 6 -20 -28 -2 -33 17 -55 11 -55 -16 0 -17 -3 -18
-15 -8 -19 16 -19 49 0 56 8 4 13 9 12 13 -2 3 4 14 15 24 10 9 18 14 18 10 0
-4 7 2 16 13 8 10 12 13 8 5 -5 -10 -3 -12 5 -7 7 5 21 0 32 -10 10 -9 19 -14
19 -10 0 4 -10 16 -22 27 -14 10 -18 18 -10 19 7 0 11 4 8 8 -3 5 1 9 8 9 8 0
12 -6 9 -13 -2 -6 0 -15 6 -19 10 -6 13 -1 15 35 1 8 8 15 16 15 8 0 21 4 28
8 15 10 16 -5 0 -21 -9 -9 -9 -12 -1 -12 21 0 26 41 8 59 -12 10 -15 11 -10 2
5 -9 4 -12 -3 -7 -8 5 -9 13 -2 25 7 14 4 23 -12 37 -13 12 -18 13 -13 4 13
-21 15 -40 4 -40 -5 0 -9 6 -9 14 0 8 -5 18 -12 22 -7 4 -8 3 -4 -4 4 -7 1
-12 -7 -12 -7 0 -20 -11 -27 -25 -7 -13 -17 -22 -22 -19 -4 3 -8 -6 -8 -20 0
-14 -4 -28 -10 -31 -6 -4 -7 1 -3 11 4 12 3 15 -6 10 -7 -5 -10 -17 -7 -29 3
-14 2 -17 -6 -9 -10 10 -46 -16 -51 -40 -1 -6 -10 -20 -20 -30 -18 -19 -18
-20 0 -35 17 -14 17 -14 -2 -8 -11 4 -28 8 -37 9 -10 1 -21 6 -25 11 -5 4 -1
5 7 0 12 -7 13 -6 2 6 -11 12 -14 12 -22 -1 -9 -15 -11 -14 -14 13 -1 6 -6 11
-11 10 -6 0 -11 19 -12 44 -2 36 0 43 11 34 9 -8 12 -6 11 7 0 9 -5 24 -10 31
-5 9 -4 12 1 8 16 -10 39 80 25 97 -9 11 -9 16 0 22 8 5 10 3 5 -7 -4 -8 0 -5
8 6 9 11 14 25 12 31 -3 7 2 15 10 18 9 3 12 10 9 16 -4 6 -10 8 -15 5 -18
-11 -2 29 18 45 17 14 20 23 13 46 -4 16 -6 36 -4 44 2 8 -2 5 -8 -7 -10 -20
-14 -21 -23 -8 -9 12 -11 7 -13 -25 -1 -22 -12 -57 -25 -78 -13 -20 -23 -44
-23 -52 -1 -8 -6 -14 -13 -12 -7 1 -13 -4 -13 -10 -1 -7 -2 -20 -3 -28 0 -8
-7 -16 -13 -16 -7 -1 -18 -2 -25 -3 -9 -1 -9 -4 0 -13 15 -15 16 -31 0 -22 -8
5 -9 2 -5 -9 3 -9 2 -19 -3 -22 -6 -4 -10 0 -11 7 0 7 -4 4 -9 -7 -8 -19 -9
-19 -9 3 -1 25 -19 30 -26 7 -3 -8 -8 -23 -12 -32 -3 -10 -5 -22 -4 -28 1 -5
-8 0 -18 13 l-20 23 -7 -25 c-3 -14 -10 -26 -15 -26 -5 0 -6 -7 -3 -15 4 -8 1
-15 -4 -15 -6 0 -12 12 -14 27 -3 29 21 98 73 212 16 35 27 66 25 68 -3 3 -12
-11 -20 -32 -19 -45 -40 -39 -24 7 9 26 8 33 -7 45 -20 14 -16 16 25 14 l25
-2 -22 20 c-28 24 -30 35 -3 21 25 -13 50 -2 26 12 -12 7 -15 21 -14 56 3 52
15 67 37 49 12 -10 13 -9 6 2 -4 8 -9 25 -11 38 -2 19 2 23 23 23 25 0 25 1 9
25 -18 27 -14 45 9 45 7 0 15 7 19 15 3 8 0 14 -6 12 -6 -1 -12 3 -15 10 -3 7
3 9 18 6 15 -4 20 -3 15 5 -4 7 -1 12 9 12 13 0 14 4 5 20 -6 11 -7 20 -2 20
11 0 13 61 3 75 -9 10 -11 31 -11 76 0 51 -65 102 -86 68z m-64 -309 c0 -5 -4
-10 -10 -10 -5 0 -10 5 -10 10 0 6 5 10 10 10 6 0 10 -4 10 -10z m0 -341 c0
-6 -4 -7 -10 -4 -5 3 -10 11 -10 16 0 6 5 7 10 4 6 -3 10 -11 10 -16z m10 -68
c0 -5 -7 -16 -15 -25 -9 -8 -15 -18 -15 -21 3 -13 -8 -29 -15 -23 -9 9 22 78
35 78 6 0 10 -4 10 -9z m40 -218 c-11 -17 -11 -17 -6 0 3 10 6 24 7 30 0 9 2
9 5 0 3 -7 0 -20 -6 -30z m-28 -21 c-4 -12 -8 -12 -19 4 -19 26 -16 36 6 22
11 -6 17 -18 13 -26z m366 -107 c-3 -3 -9 2 -12 12 -6 14 -5 15 5 6 7 -7 10
-15 7 -18z"/>
<path d="M210 1082 c-8 -10 -25 -29 -36 -44 -12 -15 -24 -24 -28 -21 -3 3 -6
1 -6 -5 0 -7 -6 -12 -13 -12 -7 0 -23 -13 -35 -30 -22 -29 -22 -32 -22 -495
l0 -465 373 0 c204 0 368 4 362 8 -14 10 -17 32 -4 32 8 0 8 4 2 13 -5 6 -9
28 -8 47 2 19 -1 50 -6 68 -6 28 -5 33 7 28 12 -5 14 -1 8 17 -9 30 -24 48
-35 41 -5 -3 -9 7 -9 21 0 15 4 24 10 20 6 -3 10 5 10 19 0 14 -4 28 -10 31
-5 3 -10 33 -10 66 0 44 -4 61 -15 65 -8 4 -13 10 -10 14 3 5 -2 15 -10 23 -8
9 -15 22 -15 30 0 28 -31 101 -50 119 -11 11 -20 23 -20 28 0 11 -22 40 -60
80 -14 15 -31 38 -38 51 -30 55 -112 86 -138 51 -11 -13 -13 -14 -14 -2 0 22
-63 145 -68 132 -2 -7 4 -26 12 -43 18 -37 21 -69 6 -69 -6 0 -14 10 -19 23
-21 54 -83 177 -89 176 -4 0 -14 -8 -22 -17z m30 -131 c5 -11 10 -42 10 -70 0
-27 5 -63 11 -78 7 -15 17 -41 24 -58 35 -85 53 -153 42 -164 -7 -7 -6 -12 5
-16 10 -4 13 -15 10 -30 -2 -14 -9 -22 -15 -18 -6 3 -3 -4 6 -16 8 -13 13 -30
10 -37 -3 -8 0 -14 7 -14 6 0 9 -4 6 -9 -3 -5 1 -11 9 -15 10 -4 15 -20 15
-50 0 -24 4 -46 10 -48 6 -2 5 -13 -3 -28 -12 -22 -11 -28 5 -44 10 -11 18
-27 17 -35 0 -11 -3 -9 -9 6 -8 20 -44 40 -63 35 -5 -1 -6 2 -3 7 8 12 -21 41
-41 41 -9 0 -13 3 -10 7 4 3 -1 12 -11 19 -11 8 -17 26 -17 56 0 29 -4 42 -12
40 -7 -1 -13 2 -13 8 0 5 5 10 10 10 7 0 7 6 0 20 -6 11 -12 63 -14 116 -2 67
-6 98 -16 104 -19 12 -19 168 0 180 10 6 11 12 3 22 -7 10 -10 56 -4 76 3 9
22 -1 31 -17z m127 -76 c8 -22 -6 -33 -17 -15 -13 20 -12 30 0 30 6 0 13 -7
17 -15z m20 -61 c-9 -9 -28 6 -21 18 4 6 10 6 17 -1 6 -6 8 -13 4 -17z m-263
-733 c4 -5 -3 -7 -14 -4 -23 6 -26 13 -6 13 8 0 17 -4 20 -9z"/>
<path d="M940 1069 c0 -5 5 -7 10 -4 6 3 10 8 10 11 0 2 -4 4 -10 4 -5 0 -10
-5 -10 -11z"/>
<path d="M5125 1018 c1 -35 3 -71 4 -81 1 -10 5 -16 9 -13 5 3 8 -25 8 -62 -1
-37 3 -73 9 -81 7 -10 6 -15 -2 -18 -10 -4 -10 -10 -2 -24 5 -11 7 -28 4 -39
-3 -10 -2 -21 4 -24 5 -3 7 -15 4 -26 -5 -19 4 -24 45 -23 8 1 11 -7 7 -21 -2
-11 -2 -15 1 -8 5 10 9 10 20 1 10 -8 14 -8 14 0 0 6 0 14 0 19 0 4 -5 7 -11
7 -26 0 -33 33 -20 85 12 46 12 52 -4 64 -13 9 -15 15 -7 20 17 10 15 75 -2
82 -8 3 -14 15 -14 27 1 54 -16 89 -38 80 -13 -5 -15 -1 -10 15 4 11 2 23 -4
27 -8 5 -8 11 0 20 7 9 6 16 -4 24 -13 11 -14 3 -11 -51z m75 -328 c0 -5 -6
-10 -14 -10 -8 0 -18 5 -21 10 -3 6 3 10 14 10 12 0 21 -4 21 -10z"/>
<path d="M4580 965 c0 -8 2 -15 4 -15 2 0 6 7 10 15 3 8 1 15 -4 15 -6 0 -10
-7 -10 -15z"/>
<path d="M4790 901 c0 -5 5 -13 10 -16 6 -3 10 -2 10 4 0 5 -4 13 -10 16 -5 3
-10 2 -10 -4z"/>
<path d="M3230 890 c0 -5 5 -10 11 -10 5 0 7 5 4 10 -3 6 -8 10 -11 10 -2 0
-4 -4 -4 -10z"/>
<path d="M3350 886 c0 -2 8 -10 18 -17 15 -13 16 -12 3 4 -13 16 -21 21 -21
13z"/>
<path d="M4855 869 c-4 -6 -5 -12 -2 -15 2 -3 7 2 10 11 7 17 1 20 -8 4z"/>
<path d="M4750 830 c0 -5 5 -10 11 -10 5 0 7 5 4 10 -3 6 -8 10 -11 10 -2 0
-4 -4 -4 -10z"/>
<path d="M4876 812 c-2 -4 -1 -14 4 -22 7 -11 9 -9 7 8 -1 24 -3 26 -11 14z"/>
<path d="M4736 797 c3 -10 9 -15 12 -12 3 3 0 11 -7 18 -10 9 -11 8 -5 -6z"/>
<path d="M4810 784 c0 -8 5 -12 10 -9 6 4 8 11 5 16 -9 14 -15 11 -15 -7z"/>
<path d="M3291 771 c-8 -5 -9 -11 -3 -15 5 -3 12 1 16 9 6 17 6 18 -13 6z"/>
<path d="M4720 765 c0 -8 4 -15 10 -15 5 0 7 7 4 15 -4 8 -8 15 -10 15 -2 0
-4 -7 -4 -15z"/>
<path d="M4765 769 c-4 -6 -5 -12 -2 -15 2 -3 7 2 10 11 7 17 1 20 -8 4z"/>
<path d="M4863 763 c-7 -3 -13 -13 -13 -24 0 -12 -7 -19 -20 -19 -13 0 -17 -5
-14 -14 3 -9 -5 -21 -20 -31 -14 -10 -23 -22 -19 -31 3 -9 -2 -14 -16 -14 -28
0 -27 -18 2 -30 20 -8 21 -9 2 -11 -11 -1 -24 -1 -30 1 -5 1 -5 -4 2 -11 9 -9
17 -8 38 5 14 9 30 14 35 11 5 -3 7 7 4 22 -3 15 -10 30 -15 34 -6 3 -3 11 6
19 14 12 20 12 38 0 21 -12 21 -12 5 7 -23 25 -23 37 1 30 10 -2 24 -2 30 2
14 9 -1 59 -16 54z m-64 -153 c-6 -5 -18 -6 -26 -3 -19 8 -16 11 13 11 17 0
22 -3 13 -8z"/>
<path d="M926 741 c-7 -11 18 -33 27 -24 4 3 7 12 7 20 0 15 -26 18 -34 4z"/>
<path d="M4759 698 c-5 -18 -6 -38 -1 -34 7 8 12 36 6 36 -2 0 -4 -1 -5 -2z"/>
<path d="M4696 641 c-23 -43 -20 -52 5 -12 11 18 18 35 15 38 -2 3 -12 -9 -20
-26z"/>
<path d="M4645 650 c3 -5 8 -10 11 -10 2 0 4 5 4 10 0 6 -5 10 -11 10 -5 0 -7
-4 -4 -10z"/>
<path d="M5170 601 c0 -11 4 -21 9 -21 18 0 21 18 6 30 -13 10 -15 9 -15 -9z"/>
<path d="M5203 560 c0 -14 7 -32 14 -42 10 -11 11 -18 4 -23 -6 -3 -11 -15
-11 -26 0 -11 -4 -18 -9 -15 -5 4 -4 -5 2 -19 12 -25 27 -34 27 -16 0 10 14 9
43 -4 12 -5 15 -11 7 -20 -7 -8 -6 -12 3 -12 19 0 20 46 1 84 -17 37 -37 35
-28 -3 4 -15 2 -24 -6 -24 -6 0 -9 4 -5 9 3 5 -2 17 -11 25 -13 13 -13 16 -1
16 8 0 22 11 30 23 12 19 13 24 2 24 -8 0 -17 -7 -19 -14 -3 -8 -11 -11 -17
-7 -8 4 -7 9 2 15 11 7 11 9 1 9 -7 0 -10 5 -7 10 4 6 12 7 18 3 7 -4 6 1 -2
11 -10 12 -16 14 -21 5 -6 -8 -9 -8 -13 2 -3 8 -5 3 -4 -11z"/>
<path d="M4760 552 c0 -10 -5 -23 -12 -30 -9 -9 -8 -12 6 -12 9 0 14 5 11 10
-3 6 0 10 8 10 10 0 13 7 10 20 -7 25 -23 26 -23 2z"/>
<path d="M4645 413 c5 -36 15 -58 15 -34 0 7 4 10 9 6 5 -3 13 0 17 6 4 8 3 9
-4 5 -7 -4 -12 -1 -12 8 0 9 -6 16 -12 16 -10 0 -10 2 0 9 11 7 10 9 -3 15
-14 5 -15 0 -10 -31z"/>
<path d="M3070 422 c0 -15 4 -20 16 -15 9 3 12 9 7 12 -4 3 -11 10 -15 15 -5
5 -8 0 -8 -12z"/>
<path d="M4696 418 c3 -5 10 -6 15 -3 13 9 11 12 -6 12 -8 0 -12 -4 -9 -9z"/>
<path d="M5094 403 c16 -20 36 -23 36 -6 0 4 -3 3 -7 0 -3 -4 -16 1 -27 10
-21 18 -21 18 -2 -4z"/>
<path d="M4608 362 c-8 -29 5 -71 16 -54 4 7 5 12 1 12 -3 0 -1 10 6 21 6 13
7 19 1 15 -6 -3 -12 2 -14 11 -3 14 -5 13 -10 -5z"/>
<path d="M3097 319 c7 -7 15 -10 18 -7 3 3 -2 9 -12 12 -14 6 -15 5 -6 -5z"/>
<path d="M4475 210 c3 -5 8 -10 11 -10 2 0 4 5 4 10 0 6 -5 10 -11 10 -5 0 -7
-4 -4 -10z"/>
<path d="M4455 190 c3 -5 8 -10 11 -10 2 0 4 5 4 10 0 6 -5 10 -11 10 -5 0 -7
-4 -4 -10z"/>
<path d="M1285 110 c3 -5 8 -10 11 -10 2 0 4 5 4 10 0 6 -5 10 -11 10 -5 0 -7
-4 -4 -10z"/>
<path d="M1346 68 c-3 -13 -2 -26 3 -31 4 -4 8 6 9 23 1 36 -3 39 -12 8z"/>
</g>
</svg>
